<svg xmlns="http://www.w3.org/2000/svg" width="688" height="311" fill="none"><circle cx="342.5" cy="155.5" r="155.5" fill="url(#a)" opacity=".2"/><rect width="134.583" height="134.583" x="275.708" y="89.708" fill="url(#b)" stroke="url(#c)" stroke-width="1.417" rx="67.292"/><rect width="106.08" height="106.08" x="289.96" y="103.96" fill="url(#d)" rx="53.04"/><g filter="url(#e)"><circle cx="343" cy="157" r="38.25" fill="url(#f)"/></g><g filter="url(#g)"><circle cx="343" cy="157" r="32.583" fill="#5F3DE6"/></g><g filter="url(#h)"><path fill="url(#i)" d="M376.729 155.269c.955 0 1.734-.775 1.685-1.729a33.733 33.733 0 0 0-20.777-29.433 33.733 33.733 0 0 0-11.179-2.523c-.954-.049-1.729.73-1.729 1.686v21.621c0 5.732 4.647 10.378 10.379 10.378h21.621z"/><path fill="url(#j)" d="M309.271 155.269c-.956 0-1.735-.775-1.686-1.729a33.733 33.733 0 0 1 20.777-29.433 33.733 33.733 0 0 1 11.179-2.523c.954-.049 1.729.73 1.729 1.686v21.621c0 5.732-4.647 10.378-10.378 10.378h-21.621z"/><path fill="url(#k)" d="M309.271 158.728c-.956 0-1.735.775-1.686 1.729a33.733 33.733 0 0 0 20.777 29.433 33.733 33.733 0 0 0 11.179 2.523c.954.049 1.729-.73 1.729-1.685v-21.621c0-5.732-4.646-10.379-10.378-10.379h-21.621z"/><path fill="url(#l)" d="M376.729 158.728c.955 0 1.734.775 1.685 1.729a33.733 33.733 0 0 1-20.777 29.433 33.733 33.733 0 0 1-11.179 2.523c-.954.049-1.729-.73-1.729-1.685v-21.621c0-5.732 4.647-10.379 10.379-10.379h21.621z"/></g><g opacity=".2"><rect width="86.25" height="86.25" x="475.875" y="112.875" fill="url(#m)" rx="8.125"/><rect width="86.25" height="86.25" x="475.875" y="112.875" stroke="#B0AEF9" stroke-width="3.75" rx="8.125"/><rect width="86.25" height="86.25" x="475.875" y="112.875" stroke="#000" stroke-opacity=".2" stroke-width="3.75" rx="8.125"/></g><circle cx="519" cy="156" r="48.75" fill="url(#n)" opacity=".5"/><rect width="81.25" height="81.25" x="478.375" y="115.375" stroke="url(#o)" stroke-width="1.25" opacity=".4" rx="5.625"/><g filter="url(#p)"><path fill="url(#q)" d="M515.475 138.793c.62-1.393 2.528-1.461 3.276-.209l.109.209 1.91 4.299a20.161 20.161 0 0 0 7.951 9.04l.59.347 3.392 1.907a1.854 1.854 0 0 1 .776 2.393c-.13.281-.328.524-.576.709l-.198.128-3.394 1.907a20.163 20.163 0 0 0-8.253 8.767l-.288.619-1.91 4.299c-.62 1.394-2.529 1.462-3.277.209l-.108-.209-1.91-4.299a20.172 20.172 0 0 0-7.951-9.04l-.591-.346-3.391-1.907a1.854 1.854 0 0 1-.776-2.394c.13-.28.328-.524.576-.708l.198-.128 3.393-1.907a20.165 20.165 0 0 0 8.254-8.767l.288-.62 1.91-4.299zm16.764-.904a10.506 10.506 0 0 0 4.426 4.903.43.43 0 0 1 0 .751 10.512 10.512 0 0 0-4.428 4.904.438.438 0 0 1-.403.262.443.443 0 0 1-.403-.262 10.512 10.512 0 0 0-4.428-4.902.436.436 0 0 1 0-.752 10.507 10.507 0 0 0 4.428-4.906.442.442 0 0 1 .806 0l.002.002z"/></g><rect width="91.25" height="91.25" x="473.375" y="110.375" stroke="url(#r)" stroke-width="1.25" rx="10.625"/><g opacity=".2"><rect width="86.25" height="86.25" x="122.875" y="112.875" fill="url(#s)" rx="8.125"/><rect width="86.25" height="86.25" x="122.875" y="112.875" stroke="#B0AEF9" stroke-width="3.75" rx="8.125"/><rect width="86.25" height="86.25" x="122.875" y="112.875" stroke="#000" stroke-opacity=".2" stroke-width="3.75" rx="8.125"/></g><circle cx="166" cy="156" r="48.75" fill="url(#t)" opacity=".5"/><rect width="81.25" height="81.25" x="125.375" y="115.375" stroke="url(#u)" stroke-width="1.25" opacity=".4" rx="5.625"/><g filter="url(#v)"><path fill="url(#w)" d="M161.323 157.42h-8.266c-1.172 0-1.822-1.381-1.087-2.309l16.487-20.832c.826-1.043 2.481-.449 2.481.89V151.7c0 .314.25.568.558.568h7.447c1.137 0 1.796 1.309 1.132 2.248l-15.667 22.155c-.791 1.118-2.527.549-2.527-.829v-17.854a.562.562 0 0 0-.558-.568z"/></g><rect width="91.25" height="91.25" x="120.375" y="110.375" stroke="url(#x)" stroke-width="1.25" rx="10.625"/><g opacity=".2"><rect width="55.583" height="55.583" x="628.208" y="127.208" fill="url(#y)" rx="5.236"/><rect width="55.583" height="55.583" x="628.208" y="127.208" stroke="#B0AEF9" stroke-width="2.417" rx="5.236"/><rect width="55.583" height="55.583" x="628.208" y="127.208" stroke="#000" stroke-opacity=".2" stroke-width="2.417" rx="5.236"/></g><circle cx="656" cy="155" r="31.417" fill="url(#z)" opacity=".5"/><rect width="52.361" height="52.361" x="629.82" y="128.82" stroke="url(#A)" stroke-width=".806" opacity=".4" rx="3.625"/><g filter="url(#B)"><path fill="url(#C)" fill-rule="evenodd" d="M648.5 153.75a3.75 3.75 0 1 0 0-7.5 3.75 3.75 0 0 0 0 7.5zm3.75 12.5a5 5 0 1 0-.001-10.001 5 5 0 0 0 .001 10.001z" clip-rule="evenodd"/></g><g filter="url(#D)"><path fill="url(#E)" d="M667.25 150a6.25 6.25 0 1 1-12.5 0 6.25 6.25 0 0 1 12.5 0z"/></g><rect width="58.806" height="58.806" x="626.597" y="125.597" stroke="url(#F)" stroke-width=".806" rx="6.847"/><g opacity=".2"><rect width="55.583" height="55.583" x="5.208" y="128.208" fill="url(#G)" rx="5.236"/><rect width="55.583" height="55.583" x="5.208" y="128.208" stroke="#B0AEF9" stroke-width="2.417" rx="5.236"/><rect width="55.583" height="55.583" x="5.208" y="128.208" stroke="#000" stroke-opacity=".2" stroke-width="2.417" rx="5.236"/></g><circle cx="33" cy="156" r="31.417" fill="url(#H)" opacity=".5"/><rect width="52.361" height="52.361" x="6.82" y="129.82" stroke="url(#I)" stroke-width=".806" opacity=".4" rx="3.625"/><g filter="url(#J)"><path fill="url(#K)" fill-rule="evenodd" d="M42.93 163.86c.658-.33.925-1.131.596-1.789l-5.334-10.667a1.335 1.335 0 0 0-2.135-.347l-6.692 6.692-4.506-9.012a1.334 1.334 0 0 0-2.385 1.193l5.333 10.667a1.332 1.332 0 0 0 2.136.346l6.692-6.692 4.506 9.012c.33.659 1.13.926 1.789.597z" clip-rule="evenodd"/></g><g filter="url(#L)"><path fill="url(#M)" fill-rule="evenodd" d="M42.334 158.666a4 4 0 1 1 0 8 4 4 0 0 1 0-8zM29 156a4 4 0 1 1 0 8 4 4 0 0 1 0-8zm-5.333-10.667a4 4 0 1 1 0 8 4 4 0 0 1 0-8zM41 152a4 4 0 1 0-8 0 4 4 0 0 0 8 0z" clip-rule="evenodd"/></g><rect width="58.806" height="58.806" x="3.597" y="126.597" stroke="url(#N)" stroke-width=".806" rx="6.847"/><circle cx="342.5" cy="155.5" r="105.5" fill="#000" fill-opacity=".63" opacity=".2" transform="rotate(-180 342.5 155.5)"/><defs><linearGradient id="a" x1="334.609" x2="334.609" y1="382.948" y2="124.864" gradientUnits="userSpaceOnUse"><stop offset=".186" stop-color="#AD7AFF"/><stop offset="1" stop-color="#17141E" stop-opacity="0"/></linearGradient><linearGradient id="c" x1="343" x2="343" y1="89" y2="225" gradientUnits="userSpaceOnUse"><stop stop-color="#fff"/><stop offset="1" stop-color="#614BB1" stop-opacity="0"/></linearGradient><linearGradient id="f" x1="343" x2="343" y1="118.75" y2="195.25" gradientUnits="userSpaceOnUse"><stop stop-color="#A75DE7"/><stop offset="1" stop-color="#4435FF"/></linearGradient><linearGradient id="i" x1="343" x2="343" y1="121.582" y2="192.415" gradientUnits="userSpaceOnUse"><stop stop-color="#fff"/><stop offset="1" stop-color="#CAC5FF"/></linearGradient><linearGradient id="j" x1="343" x2="343" y1="121.582" y2="192.415" gradientUnits="userSpaceOnUse"><stop stop-color="#fff"/><stop offset="1" stop-color="#CAC5FF"/></linearGradient><linearGradient id="k" x1="343" x2="343" y1="121.582" y2="192.415" gradientUnits="userSpaceOnUse"><stop stop-color="#fff"/><stop offset="1" stop-color="#CAC5FF"/></linearGradient><linearGradient id="l" x1="343" x2="343" y1="121.582" y2="192.415" gradientUnits="userSpaceOnUse"><stop stop-color="#fff"/><stop offset="1" stop-color="#CAC5FF"/></linearGradient><linearGradient id="m" x1="516.716" x2="516.716" y1="221.821" y2="147.134" gradientUnits="userSpaceOnUse"><stop offset=".182" stop-color="#AD7AFF"/><stop offset="1" stop-color="#17141E" stop-opacity="0"/></linearGradient><linearGradient id="o" x1="476.5" x2="555.653" y1="128.077" y2="196.053" gradientUnits="userSpaceOnUse"><stop stop-color="#1D0062" stop-opacity="0"/><stop offset="1" stop-color="#070317"/></linearGradient><linearGradient id="q" x1="518.664" x2="518.664" y1="135.432" y2="176.82" gradientUnits="userSpaceOnUse"><stop stop-color="#fff"/><stop offset="1" stop-color="#CAC5FF"/></linearGradient><linearGradient id="r" x1="519" x2="519" y1="111" y2="201" gradientUnits="userSpaceOnUse"><stop stop-color="#DECFFF" stop-opacity=".36"/><stop offset="1" stop-color="#fff" stop-opacity=".15"/></linearGradient><linearGradient id="s" x1="163.716" x2="163.716" y1="221.821" y2="147.134" gradientUnits="userSpaceOnUse"><stop offset=".182" stop-color="#AD7AFF"/><stop offset="1" stop-color="#17141E" stop-opacity="0"/></linearGradient><linearGradient id="u" x1="123.5" x2="202.653" y1="128.077" y2="196.053" gradientUnits="userSpaceOnUse"><stop stop-color="#1D0062" stop-opacity="0"/><stop offset="1" stop-color="#070317"/></linearGradient><linearGradient id="w" x1="165.904" x2="165.904" y1="131.144" y2="180.244" gradientUnits="userSpaceOnUse"><stop stop-color="#fff"/><stop offset="1" stop-color="#CAC5FF"/></linearGradient><linearGradient id="x" x1="166" x2="166" y1="111" y2="201" gradientUnits="userSpaceOnUse"><stop stop-color="#DECFFF" stop-opacity=".36"/><stop offset="1" stop-color="#fff" stop-opacity=".15"/></linearGradient><linearGradient id="y" x1="654.528" x2="654.528" y1="197.418" y2="149.287" gradientUnits="userSpaceOnUse"><stop offset=".182" stop-color="#AD7AFF"/><stop offset="1" stop-color="#17141E" stop-opacity="0"/></linearGradient><linearGradient id="A" x1="628.611" x2="679.621" y1="137.005" y2="180.812" gradientUnits="userSpaceOnUse"><stop stop-color="#1D0062" stop-opacity="0"/><stop offset="1" stop-color="#070317"/></linearGradient><linearGradient id="C" x1="650.958" x2="650.958" y1="145.054" y2="167.62" gradientUnits="userSpaceOnUse"><stop stop-color="#fff"/><stop offset="1" stop-color="#CAC5FF"/></linearGradient><linearGradient id="E" x1="660.958" x2="660.958" y1="143.002" y2="157.106" gradientUnits="userSpaceOnUse"><stop stop-color="#fff"/><stop offset="1" stop-color="#CAC5FF"/></linearGradient><linearGradient id="F" x1="656" x2="656" y1="126" y2="184" gradientUnits="userSpaceOnUse"><stop stop-color="#DECFFF" stop-opacity=".36"/><stop offset="1" stop-color="#fff" stop-opacity=".15"/></linearGradient><linearGradient id="G" x1="31.528" x2="31.528" y1="198.418" y2="150.287" gradientUnits="userSpaceOnUse"><stop offset=".182" stop-color="#AD7AFF"/><stop offset="1" stop-color="#17141E" stop-opacity="0"/></linearGradient><linearGradient id="I" x1="5.611" x2="56.621" y1="138.005" y2="181.812" gradientUnits="userSpaceOnUse"><stop stop-color="#1D0062" stop-opacity="0"/><stop offset="1" stop-color="#070317"/></linearGradient><linearGradient id="K" x1="32.929" x2="32.929" y1="147.043" y2="165.096" gradientUnits="userSpaceOnUse"><stop stop-color="#fff"/><stop offset="1" stop-color="#CAC5FF"/></linearGradient><linearGradient id="M" x1="32.911" x2="32.911" y1="144.057" y2="168.127" gradientUnits="userSpaceOnUse"><stop stop-color="#fff"/><stop offset="1" stop-color="#CAC5FF"/></linearGradient><linearGradient id="N" x1="33" x2="33" y1="127" y2="185" gradientUnits="userSpaceOnUse"><stop stop-color="#DECFFF" stop-opacity=".36"/><stop offset="1" stop-color="#fff" stop-opacity=".15"/></linearGradient><filter id="e" width="107.667" height="107.667" x="289.167" y="103.167" color-interpolation-filters="sRGB" filterUnits="userSpaceOnUse"><feFlood flood-opacity="0" result="BackgroundImageFix"/><feBlend in="SourceGraphic" in2="BackgroundImageFix" result="shape"/><feGaussianBlur result="effect1_foregroundBlur_266_2669" stdDeviation="7.792"/></filter><filter id="g" width="99.167" height="99.167" x="293.417" y="107.417" color-interpolation-filters="sRGB" filterUnits="userSpaceOnUse"><feFlood flood-opacity="0" result="BackgroundImageFix"/><feBlend in="SourceGraphic" in2="BackgroundImageFix" result="shape"/><feGaussianBlur result="effect1_foregroundBlur_266_2669" stdDeviation="8.5"/></filter><filter id="h" width="110.5" height="110.5" x="287.75" y="107.415" color-interpolation-filters="sRGB" filterUnits="userSpaceOnUse"><feFlood flood-opacity="0" result="BackgroundImageFix"/><feColorMatrix in="SourceAlpha" result="hardAlpha" values="0 0 0 0 0 0 0 0 0 0 0 0 0 0 0 0 0 0 127 0"/><feOffset dy="5.667"/><feGaussianBlur stdDeviation="9.917"/><feComposite in2="hardAlpha" operator="out"/><feColorMatrix values="0 0 0 0 1 0 0 0 0 1 0 0 0 0 1 0 0 0 0.25 0"/><feBlend in2="BackgroundImageFix" result="effect1_dropShadow_266_2669"/><feBlend in="SourceGraphic" in2="effect1_dropShadow_266_2669" result="shape"/></filter><filter id="p" width="75.431" height="75.912" x="481.069" y="123.615" color-interpolation-filters="sRGB" filterUnits="userSpaceOnUse"><feFlood flood-opacity="0" result="BackgroundImageFix"/><feColorMatrix in="SourceAlpha" result="hardAlpha" values="0 0 0 0 0 0 0 0 0 0 0 0 0 0 0 0 0 0 127 0"/><feOffset dy="5.604"/><feGaussianBlur stdDeviation="9.808"/><feComposite in2="hardAlpha" operator="out"/><feColorMatrix values="0 0 0 0 1 0 0 0 0 1 0 0 0 0 1 0 0 0 0.25 0"/><feBlend in2="BackgroundImageFix" result="effect1_dropShadow_266_2669"/><feBlend in="SourceGraphic" in2="effect1_dropShadow_266_2669" result="shape"/></filter><filter id="v" width="67.912" height="82.747" x="132.044" y="119.736" color-interpolation-filters="sRGB" filterUnits="userSpaceOnUse"><feFlood flood-opacity="0" result="BackgroundImageFix"/><feColorMatrix in="SourceAlpha" result="hardAlpha" values="0 0 0 0 0 0 0 0 0 0 0 0 0 0 0 0 0 0 127 0"/><feOffset dy="5.604"/><feGaussianBlur stdDeviation="9.808"/><feComposite in2="hardAlpha" operator="out"/><feColorMatrix values="0 0 0 0 1 0 0 0 0 1 0 0 0 0 1 0 0 0 0.25 0"/><feBlend in2="BackgroundImageFix" result="effect1_dropShadow_266_2669"/><feBlend in="SourceGraphic" in2="effect1_dropShadow_266_2669" result="shape"/></filter><filter id="B" width="51.731" height="59.231" x="625.135" y="132.239" color-interpolation-filters="sRGB" filterUnits="userSpaceOnUse"><feFlood flood-opacity="0" result="BackgroundImageFix"/><feColorMatrix in="SourceAlpha" result="hardAlpha" values="0 0 0 0 0 0 0 0 0 0 0 0 0 0 0 0 0 0 127 0"/><feOffset dy="5.604"/><feGaussianBlur stdDeviation="9.808"/><feComposite in2="hardAlpha" operator="out"/><feColorMatrix values="0 0 0 0 1 0 0 0 0 1 0 0 0 0 1 0 0 0 0.25 0"/><feBlend in2="BackgroundImageFix" result="effect1_dropShadow_266_2669"/><feBlend in="SourceGraphic" in2="effect1_dropShadow_266_2669" result="shape"/></filter><filter id="D" width="51.731" height="51.731" x="635.135" y="129.739" color-interpolation-filters="sRGB" filterUnits="userSpaceOnUse"><feFlood flood-opacity="0" result="BackgroundImageFix"/><feColorMatrix in="SourceAlpha" result="hardAlpha" values="0 0 0 0 0 0 0 0 0 0 0 0 0 0 0 0 0 0 127 0"/><feOffset dy="5.604"/><feGaussianBlur stdDeviation="9.808"/><feComposite in2="hardAlpha" operator="out"/><feColorMatrix values="0 0 0 0 1 0 0 0 0 1 0 0 0 0 1 0 0 0 0.25 0"/><feBlend in2="BackgroundImageFix" result="effect1_dropShadow_266_2669"/><feBlend in="SourceGraphic" in2="effect1_dropShadow_266_2669" result="shape"/></filter><filter id="J" width="60.565" height="55.232" x="2.718" y="133.989" color-interpolation-filters="sRGB" filterUnits="userSpaceOnUse"><feFlood flood-opacity="0" result="BackgroundImageFix"/><feColorMatrix in="SourceAlpha" result="hardAlpha" values="0 0 0 0 0 0 0 0 0 0 0 0 0 0 0 0 0 0 127 0"/><feOffset dy="5.604"/><feGaussianBlur stdDeviation="9.808"/><feComposite in2="hardAlpha" operator="out"/><feColorMatrix values="0 0 0 0 1 0 0 0 0 1 0 0 0 0 1 0 0 0 0.25 0"/><feBlend in2="BackgroundImageFix" result="effect1_dropShadow_266_2669"/><feBlend in="SourceGraphic" in2="effect1_dropShadow_266_2669" result="shape"/></filter><filter id="L" width="65.898" height="60.564" x=".052" y="131.322" color-interpolation-filters="sRGB" filterUnits="userSpaceOnUse"><feFlood flood-opacity="0" result="BackgroundImageFix"/><feColorMatrix in="SourceAlpha" result="hardAlpha" values="0 0 0 0 0 0 0 0 0 0 0 0 0 0 0 0 0 0 127 0"/><feOffset dy="5.604"/><feGaussianBlur stdDeviation="9.808"/><feComposite in2="hardAlpha" operator="out"/><feColorMatrix values="0 0 0 0 1 0 0 0 0 1 0 0 0 0 1 0 0 0 0.25 0"/><feBlend in2="BackgroundImageFix" result="effect1_dropShadow_266_2669"/><feBlend in="SourceGraphic" in2="effect1_dropShadow_266_2669" result="shape"/></filter><radialGradient id="b" cx="0" cy="0" r="1" gradientTransform="matrix(.7472 73.91302 -73.91292 .7472 343 157)" gradientUnits="userSpaceOnUse"><stop stop-color="#6646EB"/><stop offset="1" stop-color="#351A95"/></radialGradient><radialGradient id="d" cx="0" cy="0" r="1" gradientTransform="matrix(.58282 57.65215 -57.65205 .58282 343 157)" gradientUnits="userSpaceOnUse"><stop stop-color="#6646EB"/><stop offset="1" stop-color="#351A95"/></radialGradient><radialGradient id="n" cx="0" cy="0" r="1" gradientTransform="matrix(0 45 -45 0 519 156)" gradientUnits="userSpaceOnUse"><stop offset=".161" stop-color="#6646EB" stop-opacity=".54"/><stop offset="1" stop-color="#040D15" stop-opacity="0"/></radialGradient><radialGradient id="t" cx="0" cy="0" r="1" gradientTransform="rotate(90 5 161) scale(45)" gradientUnits="userSpaceOnUse"><stop offset=".161" stop-color="#6646EB" stop-opacity=".54"/><stop offset="1" stop-color="#040D15" stop-opacity="0"/></radialGradient><radialGradient id="z" cx="0" cy="0" r="1" gradientTransform="matrix(0 29 -29 0 656 155)" gradientUnits="userSpaceOnUse"><stop offset=".161" stop-color="#6646EB" stop-opacity=".54"/><stop offset="1" stop-color="#040D15" stop-opacity="0"/></radialGradient><radialGradient id="H" cx="0" cy="0" r="1" gradientTransform="matrix(0 29 -29 0 33 156)" gradientUnits="userSpaceOnUse"><stop offset=".161" stop-color="#6646EB" stop-opacity=".54"/><stop offset="1" stop-color="#040D15" stop-opacity="0"/></radialGradient></defs></svg>